<?xml version="1.0" encoding="UTF-8" standalone="no"?>
<svg
   xmlns:dc="http://purl.org/dc/elements/1.1/"
   xmlns:cc="http://creativecommons.org/ns#"
   xmlns:rdf="http://www.w3.org/1999/02/22-rdf-syntax-ns#"
   xmlns:svg="http://www.w3.org/2000/svg"
   xmlns="http://www.w3.org/2000/svg"
   xmlns:sodipodi="http://sodipodi.sourceforge.net/DTD/sodipodi-0.dtd"
   xmlns:inkscape="http://www.inkscape.org/namespaces/inkscape"
   id="_2020logo"
   data-name="2020logo"
   viewBox="0 0 720.94 68.65"
   version="1.1"
   sodipodi:docname="CentPhoto2020-Horz_BW.svg"
   inkscape:version="0.92.4 (5da689c313, 2019-01-14)">
  <metadata
     id="metadata57">
    <rdf:RDF>
      <cc:Work
         rdf:about="">
        <dc:format>image/svg+xml</dc:format>
        <dc:type
           rdf:resource="http://purl.org/dc/dcmitype/StillImage" />
      </cc:Work>
    </rdf:RDF>
  </metadata>
  <sodipodi:namedview
     pagecolor="#ffffff"
     bordercolor="#666666"
     borderopacity="1"
     objecttolerance="10"
     gridtolerance="10"
     guidetolerance="10"
     inkscape:pageopacity="0"
     inkscape:pageshadow="2"
     inkscape:window-width="1920"
     inkscape:window-height="1013"
     id="namedview55"
     showgrid="false"
     inkscape:zoom="0.47021943"
     inkscape:cx="360.47"
     inkscape:cy="34.325001"
     inkscape:window-x="-9"
     inkscape:window-y="-9"
     inkscape:window-maximized="1"
     inkscape:current-layer="_2020logo" />
  <defs
     id="defs4">
    <style
       id="style2">.cls-1{fill:#231f20;}</style>
  </defs>
  <path
     class="cls-1"
     d="M47.08,308.86a15.77,15.77,0,0,1,15.7-15.92c3.49,0,8.24,1,8.45,2.58s.07,3.21.07,4.12-.21,1.47-.56,1.47c-.7,0-1.47-1.33-1.67-1.61a10.14,10.14,0,0,0-8.66-4.25c-5.93,0-8.23,6.14-8.23,11.16,0,7.54,4.46,13.75,12.35,13.75,5.44,0,8.51-4.05,9.56-4.05.21,0,.56.21.56.42,0,1.12-4.19,7.12-13.75,7.12C52.87,323.65,47.08,316.6,47.08,308.86Z"
     transform="translate(-47.08 -270.89)"
     id="path6"
     style="fill:#ffffff" />
  <path
     class="cls-1"
     d="M82.26,305.23c0,11.51,7,14.93,11.23,14.93,6,0,8.31-3.63,9.84-3.63.28,0,.28.28.28.49,0,1.61-6.07,6.63-12.35,6.63-10.47,0-14.1-9.7-14.1-14.31,0-8.93,5-16.4,13.68-16.4s12.35,8.31,12.35,11.1c0,1.26-.76,1.19-2.37,1.19ZM96,303.34c1,0,1.39-.35,1.39-1.39,0-3.91-3.91-7.4-7.75-7.4-4.32,0-7.39,4.95-7.39,8.79Z"
     transform="translate(-47.08 -270.89)"
     id="path8"
     style="fill:#ffffff" />
  <path
     class="cls-1"
     d="M115.48,317.51c0,4.82,6.14,2.79,6.14,4.68,0,.83-.49,1-1.54,1s-2.58-.28-6.63-.28c-3.7,0-5.09.28-5.93.28s-1.26-.14-1.26-.83c0-1.4,4.12,0,4.12-4.54V300.48c0-4.19-5.16-2.37-5.16-3.84a.76.76,0,0,1,.63-.77c5.79-1.25,7.18-3.49,8.79-3.49.42,0,.84.42.84,1.12v4.61c-.14.83,3.35-5.17,10.12-5.17C135,292.94,137,300.69,137,306v11.52c0,4.82,5.45,2.79,5.45,4.68,0,.83-.49,1-1.19,1-.91,0-2.65-.28-6.07-.28-2.65,0-4.12.28-5,.28s-1.25-.14-1.25-.83c0-1.4,3,0,3-4.54V304.74c0-3.49-2.51-8.73-8.17-8.73-5.86,0-8.3,4.33-8.23,5.45Z"
     transform="translate(-47.08 -270.89)"
     id="path10"
     style="fill:#ffffff" />
  <path
     class="cls-1"
     d="M146.4,296.71c-3.28,0-3.77,0-3.77-.49s1.74-1.74,5.3-5.65c1.4-1.68,2.1-3.21,2.65-3.21,1,0,.91,1.46.91,6.49h7.68a4.34,4.34,0,0,0,2.72-1.19.53.53,0,0,1,.49.56,2.3,2.3,0,0,1-.42,1l-1.4,2.51h-9.07V317c.14,2.86,2.09,4.19,4.89,4.19,3.7,0,4.74-1.61,5.93-1.61.28,0,.56.07.56.63,0,1-3.77,3.42-8.66,3.42-3.21,0-7.81-.91-7.81-8.1Z"
     transform="translate(-47.08 -270.89)"
     id="path12"
     style="fill:#ffffff" />
  <path
     class="cls-1"
     d="M174.8,317c0,6.49,6.21,3.14,6.21,5.37,0,.63-.35.77-1.11.77-1,0-2.66-.28-6.56-.28a57.23,57.23,0,0,0-6.42.28c-.56,0-.77-.21-.77-.63,0-1.46,3.56-1.18,3.56-4v-18c0-4.19-5-2.37-5-3.84,0-.42.56-.7.91-.77,5.37-1.25,6.77-3.49,8.37-3.49.42,0,.84.42.84,1.12v5.23h.14c1.47-2,4-5.79,6.91-5.79,1.47,0,4.61,1.82,4.61,3.14,0,1.05-1.68,3.14-2.51,3.14-1.33,0-2.1-1.6-4.61-1.6-2.86,0-4.54,3.21-4.54,4.12Z"
     transform="translate(-47.08 -270.89)"
     id="path14"
     style="fill:#ffffff" />
  <path
     class="cls-1"
     d="M194,300.48c0-4.19-3.83-2.37-3.83-3.84a.76.76,0,0,1,.62-.77c4.47-1.25,5.87-3.49,7.47-3.49.42,0,.84.42.84,1.12v25.06c0,3.56,5.51,2,5.51,3.83,0,.56-.42.77-1.32.77-1.47,0-3.63-.28-6.49-.28-2.24,0-4,.28-4.82.28-.56,0-1-.07-1.05-.77,0-1.74,3.07.91,3.07-5.44Zm5.45-18.22c0,.84-2,3.63-2.93,3.63s-2.93-2.86-2.93-3.63,2.09-3.7,2.93-3.7S199.44,281.43,199.44,282.26Z"
     transform="translate(-47.08 -270.89)"
     id="path16"
     style="fill:#ffffff" />
  <path
     class="cls-1"
     d="M214.45,331.89c0,4.6,6.42,2.86,6.42,4.53,0,.84-.49.91-1.33.91s-2.58-.28-7.26-.28c-2.72,0-4.74.28-5.51.28s-1.05-.14-1.05-.77c0-1.81,3.63-.69,3.63-4.95V300.48c0-4.19-4.75-2.37-4.75-3.84a.76.76,0,0,1,.63-.77c5.38-1.25,6.77-3.49,8.38-3.49.42,0,.84.42.84,1.12v4.05c4.25-4,7.67-4.61,9.56-4.61,8.23,0,12.49,6.49,12.49,14.17,0,6.42-4.05,16.54-14.87,16.54a16.26,16.26,0,0,1-7.18-1.88Zm0-16.27c0,3.77,4.32,6.36,9.07,6.36,6.42,0,9.14-6.15,9.14-11.66,0-6.35-3.21-14.1-10.61-14.1-7.12,0-7.67,5.38-7.6,5.52Z"
     transform="translate(-47.08 -270.89)"
     id="path18"
     style="fill:#ffffff" />
  <path
     class="cls-1"
     d="M245.08,305.23c0,11.51,7,14.93,11.24,14.93,6,0,8.31-3.63,9.84-3.63.28,0,.28.28.28.49,0,1.61-6.07,6.63-12.35,6.63-10.47,0-14.1-9.7-14.1-14.31,0-8.93,5-16.4,13.68-16.4S266,301.25,266,304c0,1.26-.76,1.19-2.37,1.19Zm13.75-1.89c1,0,1.4-.35,1.4-1.39,0-3.91-3.91-7.4-7.75-7.4-4.32,0-7.4,4.95-7.4,8.79Z"
     transform="translate(-47.08 -270.89)"
     id="path20"
     style="fill:#ffffff" />
  <path
     class="cls-1"
     d="M272.86,296.71c-3.28,0-3.77,0-3.77-.49s1.75-1.74,5.31-5.65c1.39-1.68,2.09-3.21,2.65-3.21,1,0,.91,1.46.91,6.49h7.67a4.34,4.34,0,0,0,2.73-1.19.53.53,0,0,1,.49.56,2.3,2.3,0,0,1-.42,1l-1.4,2.51H278V317c.14,2.86,2.09,4.19,4.88,4.19,3.7,0,4.75-1.61,5.94-1.61.27,0,.55.07.55.63,0,1-3.77,3.42-8.65,3.42-3.21,0-7.82-.91-7.82-8.1Z"
     transform="translate(-47.08 -270.89)"
     id="path22"
     style="fill:#ffffff" />
  <path
     class="cls-1"
     d="M309.78,300.83c0-3.63-2.86-6.07-7.18-6.07-3.36,0-6.08.35-6.08,4.18,0,1.05.42,2.1.42,2.87s-.21,1.32-1.53,1.32-3.28-1-3.28-2.3c.07-3.21,4-8.1,11.72-7.89,4.33,0,11,1.26,11,7.19v14.45c0,2.37-.63,6.49,3,6.49.28,0,.91-.14,1.19-.14s.9,0,.9.49c0,1.46-3.07,1.74-4,1.74a5.37,5.37,0,0,1-5.45-3.56,16.59,16.59,0,0,1-10.68,4c-4.53,0-7.54-1.67-7.54-6.63,0-3.7,1.19-8.1,17.52-10.82Zm0,7.05c-4.46,1-13,2.09-13,8.23,0,4,2,5.52,5.72,5.52,2.52,0,7.26-2,7.26-5.66Z"
     transform="translate(-47.08 -270.89)"
     id="path24"
     style="fill:#ffffff" />
  <path
     class="cls-1"
     d="M329.67,317.51c0,4.82,5.8,2.79,5.8,4.68,0,.83-.56,1-1.61,1s-3.14-.28-6.42-.28-4.75.28-5.44.28-.84-.28-.84-.9c0-1.05,3.42-.84,3.42-3.84V279c0-4.18-4.75-2.37-4.75-3.84a.76.76,0,0,1,.63-.76c5.37-1.26,6.77-3.49,8.38-3.49.41,0,.83.42.83,1.11Z"
     transform="translate(-47.08 -270.89)"
     id="path26"
     style="fill:#ffffff" />
  <path
     class="cls-1"
     d="M441.31,331.89c0,4.6,6.42,2.86,6.42,4.53,0,.84-.48.91-1.32.91s-2.58-.28-7.26-.28c-2.72,0-4.75.28-5.51.28s-1.05-.14-1.05-.77c0-1.81,3.63-.69,3.63-4.95V300.48c0-4.19-4.75-2.37-4.75-3.84a.76.76,0,0,1,.63-.77c5.37-1.25,6.77-3.49,8.38-3.49.41,0,.83.42.83,1.12v4.05c4.26-4,7.68-4.61,9.56-4.61,8.24,0,12.5,6.49,12.5,14.17,0,6.42-4.05,16.54-14.87,16.54a16.33,16.33,0,0,1-7.19-1.88Zm0-16.27c0,3.77,4.33,6.36,9.08,6.36,6.42,0,9.14-6.15,9.14-11.66,0-6.35-3.21-14.1-10.61-14.1-7.12,0-7.68,5.38-7.61,5.52Z"
     transform="translate(-47.08 -270.89)"
     id="path28"
     style="fill:#ffffff" />
  <path
     class="cls-1"
     d="M474.81,297.9c2.66-2.52,6.08-5,10.05-5,8.94,0,11.66,7.75,11.66,13.75v11.66c0,3.63,5.58,2.16,5.58,3.91,0,.76-.62.9-1.39.9-1.26,0-3.21-.28-5.86-.28s-5,.28-5.73.28S488,323,488,322.39c0-1,3.42-1,3.42-3.55V306.06c0-8.65-6-10.26-8.45-10.26-3.14,0-8.17,2.73-8.17,6.29v14.72c0,6,6.15,4.05,6.15,5.38,0,.83-.35,1-1.19,1-1.47,0-5-.28-7.12-.28s-5.23.28-6.35.28a.66.66,0,0,1-.7-.7c0-1.39,4.12-.62,4.12-4V279c0-4.18-5.37-2.37-5.37-3.84a.7.7,0,0,1,.55-.76c5.1-1,7.47-3.49,9.08-3.49.42,0,.83.42.83,1.11Z"
     transform="translate(-47.08 -270.89)"
     id="path30"
     style="fill:#ffffff" />
  <path
     class="cls-1"
     d="M502.66,308.86a15.75,15.75,0,0,1,15.57-15.92c5.3,0,15.14,2.58,15.14,15.57a14.81,14.81,0,0,1-15.07,15.14C509.22,323.65,502.66,318.28,502.66,308.86Zm25.83.69c0-7.19-3-15.07-11.31-15.07-6.84,0-9.63,6-9.63,11.93,0,6.84,3.21,15.78,11.37,15.78C524.79,322.19,528.49,318.21,528.49,309.55Z"
     transform="translate(-47.08 -270.89)"
     id="path32"
     style="fill:#ffffff" />
  <path
     class="cls-1"
     d="M539.3,296.71c-3.28,0-3.76,0-3.76-.49s1.74-1.74,5.3-5.65c1.4-1.68,2.09-3.21,2.65-3.21,1,0,.91,1.46.91,6.49h7.68a4.34,4.34,0,0,0,2.72-1.19.53.53,0,0,1,.49.56,2.3,2.3,0,0,1-.42,1l-1.4,2.51H544.4V317c.14,2.86,2.09,4.19,4.88,4.19,3.7,0,4.75-1.61,5.94-1.61.28,0,.56.07.56.63,0,1-3.77,3.42-8.66,3.42-3.21,0-7.82-.91-7.82-8.1Z"
     transform="translate(-47.08 -270.89)"
     id="path34"
     style="fill:#ffffff" />
  <path
     class="cls-1"
     d="M556.75,308.86a15.75,15.75,0,0,1,15.57-15.92c5.3,0,15.14,2.58,15.14,15.57a14.81,14.81,0,0,1-15.07,15.14C563.31,323.65,556.75,318.28,556.75,308.86Zm25.83.69c0-7.19-3-15.07-11.31-15.07-6.84,0-9.63,6-9.63,11.93,0,6.84,3.21,15.78,11.37,15.78C578.88,322.19,582.58,318.21,582.58,309.55Z"
     transform="translate(-47.08 -270.89)"
     id="path36"
     style="fill:#ffffff" />
  <path
     class="cls-1"
     d="M612.1,295.73c3.35,0,3.7-4.46,4.68-4.46.62,0,.55.69.55,1.11,0,5.38-1,5.66-3.63,7.26a16.32,16.32,0,0,1,.49,3.7C614.19,310,609,314,602.61,314c-3.56,0-3.91-.56-4.82-.56-1.67,0-3.35,2.23-3.35,3.84,0,.56-.56,3.35,8.24,3.35,5.86,0,13.75-.7,13.75,6.21,0,4.4-3.7,10.19-15.36,10.19-4.46,0-11.79-1.67-11.79-7.4,0-2.86,2.65-4.95,5.09-5.86-2-.77-2.65-3.14-2.65-5.51,0-2.79,3.56-5.66,3.63-5.66v-.14a10,10,0,0,1-4.47-8.58,10.91,10.91,0,0,1,11.24-11C607.91,292.94,610.15,295.73,612.1,295.73Zm-10.61,39.72c9.56,0,11.59-4.4,11.59-6.91,0-2.93-2.45-3.07-9.64-3.28a43.3,43.3,0,0,1-7.32-.7c-2.17,0-3.42,3.21-3.42,5C592.7,334.26,597.65,335.45,601.49,335.45Zm1-41c-5.17,0-6.84,4-6.84,8.58s1.95,9.42,7.12,9.42c4.88,0,6.84-3.83,6.84-8.3S607.77,294.48,602.54,294.48Z"
     transform="translate(-47.08 -270.89)"
     id="path38"
     style="fill:#ffffff" />
  <path
     class="cls-1"
     d="M629.76,317c0,6.49,6.21,3.14,6.21,5.37,0,.63-.35.77-1.12.77-1,0-2.65-.28-6.56-.28a57.68,57.68,0,0,0-6.42.28c-.56,0-.77-.21-.77-.63,0-1.46,3.56-1.18,3.56-4v-18c0-4.19-5-2.37-5-3.84,0-.42.56-.7.9-.77,5.38-1.25,6.77-3.49,8.38-3.49.42,0,.84.42.84,1.12v5.23h.14c1.46-2,4-5.79,6.91-5.79,1.46,0,4.6,1.82,4.6,3.14,0,1.05-1.67,3.14-2.51,3.14-1.33,0-2.09-1.6-4.61-1.6-2.86,0-4.53,3.21-4.53,4.12Z"
     transform="translate(-47.08 -270.89)"
     id="path40"
     style="fill:#ffffff" />
  <path
     class="cls-1"
     d="M661.93,300.83c0-3.63-2.86-6.07-7.19-6.07-3.35,0-6.07.35-6.07,4.18,0,1.05.42,2.1.42,2.87s-.21,1.32-1.54,1.32c-1.18,0-3.28-1-3.28-2.3.07-3.21,4-8.1,11.73-7.89,4.33,0,11,1.26,11,7.19v14.45c0,2.37-.63,6.49,3,6.49.28,0,.91-.14,1.18-.14s.91,0,.91.49c0,1.46-3.07,1.74-4,1.74a5.36,5.36,0,0,1-5.44-3.56,16.59,16.59,0,0,1-10.68,4c-4.54,0-7.54-1.67-7.54-6.63,0-3.7,1.19-8.1,17.52-10.82Zm0,7.05c-4.46,1-13,2.09-13,8.23,0,4,2,5.52,5.72,5.52,2.52,0,7.26-2,7.26-5.66Z"
     transform="translate(-47.08 -270.89)"
     id="path42"
     style="fill:#ffffff" />
  <path
     class="cls-1"
     d="M681.61,331.89c0,4.6,6.42,2.86,6.42,4.53,0,.84-.48.91-1.32.91s-2.58-.28-7.26-.28c-2.72,0-4.75.28-5.51.28s-1.05-.14-1.05-.77c0-1.81,3.63-.69,3.63-4.95V300.48c0-4.19-4.75-2.37-4.75-3.84a.76.76,0,0,1,.63-.77c5.37-1.25,6.77-3.49,8.37-3.49.42,0,.84.42.84,1.12v4.05c4.26-4,7.68-4.61,9.56-4.61,8.24,0,12.5,6.49,12.5,14.17,0,6.42-4,16.54-14.87,16.54a16.33,16.33,0,0,1-7.19-1.88Zm0-16.27c0,3.77,4.33,6.36,9.08,6.36,6.42,0,9.14-6.15,9.14-11.66,0-6.35-3.21-14.1-10.61-14.1-7.12,0-7.68,5.38-7.61,5.52Z"
     transform="translate(-47.08 -270.89)"
     id="path44"
     style="fill:#ffffff" />
  <path
     class="cls-1"
     d="M715.11,297.9c2.66-2.52,6.08-5,10.06-5,8.93,0,11.65,7.75,11.65,13.75v11.66c0,3.63,5.58,2.16,5.58,3.91,0,.76-.62.9-1.39.9-1.26,0-3.21-.28-5.86-.28s-5,.28-5.73.28-1.11-.21-1.11-.77c0-1,3.42-1,3.42-3.55V306.06c0-8.65-6-10.26-8.45-10.26-3.14,0-8.17,2.73-8.17,6.29v14.72c0,6,6.15,4.05,6.15,5.38,0,.83-.35,1-1.19,1-1.46,0-5-.28-7.12-.28s-5.23.28-6.35.28a.66.66,0,0,1-.7-.7c0-1.39,4.12-.62,4.12-4V279c0-4.18-5.37-2.37-5.37-3.84a.71.71,0,0,1,.55-.76c5.1-1,7.47-3.49,9.08-3.49.42,0,.83.42.83,1.11Z"
     transform="translate(-47.08 -270.89)"
     id="path46"
     style="fill:#ffffff" />
  <path
     class="cls-1"
     d="M751,336.84c-.07.21-1.33.21-2.3.21s-2.59.07-2.59-.49c0-1.53,6.35-6.77,6.35-12.21a12.09,12.09,0,0,0-1.39-4.68l-9.14-22.54c-.63-1.54-3.28-1.61-3.28-2.58,0-.7.41-.84,1.39-.84,1.47,0,3,.28,4.89.28,2.44,0,4.05-.28,5.16-.28s1.47.14,1.47.91c0,1.46-4,.07-4,2.86,0,1.12.63,2.16.49,1.53l-.14.14,7.47,19,5.37-15.78a10.44,10.44,0,0,0,.84-3.63c0-3.76-4.47-2.72-4.47-4.25,0-.7.84-.77,2.09-.77.84,0,2,.28,3.91.28,1.61,0,2.86-.28,3.56-.28s1.33.28,1.33.84c0,1.6-2.37-.14-3.77,4.05Z"
     transform="translate(-47.08 -270.89)"
     id="path48"
     style="fill:#ffffff" />
  <path
     class="cls-1"
     d="M372.64,292.26a17.34,17.34,0,0,0-3.06.34c-10.72,2-16.51,9.27-16.51,15.14,0,8.79,12.62,15.25,30,15.18,18.41-.07,30-6.51,30-15.18,0-7.53-7.38-14.86-23.67-15.57-5.19-.23-8.82,1.34-11.49,3.89s-3.66,7-2.47,11a7.76,7.76,0,0,0,12.74,3.75,5.2,5.2,0,0,0,1.67-3.72,5.44,5.44,0,0,0-4.36-5.28c-1.34-.25-2.67-1.3-2.67-2.42,0-2.06.64-5.36,5.44-5.36a18.74,18.74,0,0,1,13.47,5.53,11.78,11.78,0,0,1,3.05,8.32c-.44,7.88-7.61,12.68-21.71,12.89-13,.19-21.68-5.18-21.68-12.89a13.85,13.85,0,0,1,10.52-13.14c1.51-.42,2.49-.95,2.7-1.43a.42.42,0,0,0,0-.39C374.5,292.73,374.26,292.26,372.64,292.26Z"
     transform="translate(-47.08 -270.89)"
     id="path50"
     style="fill:#ffffff" />
  <path
     class="cls-1"
     d="M379,327.16l3.21,11.72a.89.89,0,0,0,1.72,0l3.21-11.72c.11-.42-.34-.8-.93-.8h-6.29C379.34,326.36,378.89,326.74,379,327.16Z"
     transform="translate(-47.08 -270.89)"
     id="path52"
     style="fill:#ffffff" />
</svg>
